<svg id="Layer_1" data-name="Layer 1" xmlns="http://www.w3.org/2000/svg" viewBox="0 0 135 46" width="135" height="46"><path class="cls-1" d="M57.88,9.71h5.28l12.26,16v-16H81V35.78H76.1L63.5,19.08v16.7H57.88Z"></path><path class="cls-1" d="M94,25.56l-10-15.85h6.64l6.3,10.56,6.3-10.56h6.46l-10,15.68V35.78H93.8V25.56Z"></path><path class="cls-1" d="M112.19,24.7v-15H118V24.53c0,4.26,2,6.48,5.61,6.48s5.62-2.05,5.62-6.31v-15H135V24.53c0,7.84-4.43,11.76-11.41,11.76C116.44,36.29,112.19,32.37,112.19,24.7Z"></path>
</svg>
